<svg xmlns="http://www.w3.org/2000/svg" viewBox="0 0 1440 1024" width="1440" height="1024" style="background-color: #FAFAFA; font-family: 'Inter', system-ui, sans-serif;">
  <!-- Sidebar -->
  <rect x="0" y="0" width="280" height="1024" fill="#FFFFFF" stroke="#E5E5E5" stroke-width="2" />
  
  <rect x="24" y="24" width="32" height="32" rx="8" fill="#F5F5F5" stroke="#E5E5E5" stroke-width="1" />
  <path d="M34 40l8 -8M38 44l4 -4" stroke="#737373" stroke-width="2" fill="none" stroke-linecap="round" stroke-linejoin="round" />
  <text x="70" y="46" font-size="20" font-weight="900" fill="#171717" letter-spacing="-0.5">Serv.io</text>
  <text x="160" y="43" font-size="10" font-weight="800" fill="#737373" letter-spacing="1">TEKNISI</text>

  <text x="28" y="94" font-size="11" font-weight="bold" fill="#A3A3A3" letter-spacing="1">MENU UTAMA</text>

  <!-- 1. Dashboard -->
  <rect x="32" y="120" width="20" height="20" fill="#A3A3A3" rx="4" />
  <text x="64" y="135" font-size="14" font-weight="500" fill="#525252">Dashboard</text>

  <!-- 2. Tiket Servis (ACTIVE) -->
  <rect x="16" y="160" width="248" height="44" rx="12" fill="#F5F5F5" stroke="#E5E5E5" stroke-width="1" />
  <rect x="32" y="172" width="20" height="20" fill="#737373" rx="4" />
  <text x="64" y="187" font-size="14" font-weight="700" fill="#737373">Tiket Servis</text>

  <!-- 3. Sparepart -->
  <rect x="32" y="224" width="20" height="20" fill="#A3A3A3" rx="4" />
  <text x="64" y="239" font-size="14" font-weight="500" fill="#525252">Sparepart</text>

  <!-- Topbar -->
  <rect x="280" y="0" width="1160" height="80" fill="#FFFFFF" stroke="#F5F5F5" stroke-width="2" />
  <text x="320" y="48" font-size="22" font-weight="800" fill="#171717">Daftar Tiket Pekerjaan</text>
  <circle cx="1360" cy="40" r="20" fill="#F5F5F5" />
  <text x="1360" y="45" font-size="14" font-weight="bold" fill="#737373" text-anchor="middle">T</text>
  <text x="1240" y="45" font-size="14" font-weight="600" fill="#525252">Budi (Teknisi)</text>

  <!-- Search & Action -->
  <rect x="320" y="112" width="320" height="48" rx="12" fill="#FFFFFF" stroke="#E5E5E5" stroke-width="1.5" />
  <text x="360" y="141" font-size="14" fill="#A3A3A3">Cari no tiket...</text>

  <!-- Data Table Container -->
  <rect x="320" y="192" width="1080" height="600" rx="16" fill="#FFFFFF" stroke="#E5E5E5" stroke-width="1.5" />
  
  <rect x="320" y="192" width="1080" height="48" fill="#FAFAFA" stroke="#F5F5F5" stroke-width="1" />
  <text x="344" y="221" font-size="12" font-weight="800" fill="#737373">NO TIKET</text>
  <text x="460" y="221" font-size="12" font-weight="800" fill="#737373">PERANGKAT</text>
  <text x="680" y="221" font-size="12" font-weight="800" fill="#737373">KELUHAN</text>
  <text x="960" y="221" font-size="12" font-weight="800" fill="#737373">STATUS</text>
  <text x="1140" y="221" font-size="12" font-weight="800" fill="#737373">TENGGAT WAKTU</text>
  <text x="1300" y="221" font-size="12" font-weight="800" fill="#737373">AKSI</text>

  <!-- Row 1 -->
  <rect x="320" y="240" width="1080" height="64" fill="#FFFFFF" stroke="#FAFAFA" stroke-width="2" />
  <text x="344" y="277" font-size="13" font-weight="700" fill="#171717" font-family="monospace">SRV-001</text>
  <text x="460" y="277" font-size="13" font-weight="500" fill="#404040">Laptop ASUS ROG</text>
  <text x="680" y="277" font-size="13" font-weight="500" fill="#404040">Layar Berkedip</text>
  <rect x="960" y="258" width="160" height="28" rx="6" fill="#E5E5E5" />
  <text x="1040" y="277" font-size="12" font-weight="800" fill="#525252" text-anchor="middle">DALAM PERBAIKAN</text>
  <text x="1140" y="277" font-size="13" font-weight="700" fill="#525252">Hari ini</text>
  <rect x="1270" y="258" width="100" height="28" rx="6" fill="#737373" />
  <text x="1320" y="277" font-size="12" font-weight="700" fill="#FFFFFF" text-anchor="middle">Update Log</text>

  <!-- Row 2 -->
  <rect x="320" y="304" width="1080" height="64" fill="#FFFFFF" stroke="#FAFAFA" stroke-width="2" />
  <text x="344" y="341" font-size="13" font-weight="700" fill="#171717" font-family="monospace">SRV-002</text>
  <text x="460" y="341" font-size="13" font-weight="500" fill="#404040">Printer Canon L3110</text>
  <text x="680" y="341" font-size="13" font-weight="500" fill="#404040">Tinta Macet</text>
  <rect x="960" y="322" width="160" height="28" rx="6" fill="#E5E5E5" />
  <text x="1040" y="341" font-size="12" font-weight="800" fill="#525252" text-anchor="middle">MENUNGGU SPAREPART</text>
  <text x="1140" y="341" font-size="13" font-weight="500" fill="#737373">28/06/2026</text>
  <rect x="1270" y="322" width="100" height="28" rx="6" fill="#F5F5F5" />
  <text x="1320" y="341" font-size="12" font-weight="700" fill="#525252" text-anchor="middle">Cek Detail</text>

  <!-- Row 3 -->
  <rect x="320" y="368" width="1080" height="64" fill="#FFFFFF" stroke="#FAFAFA" stroke-width="2" />
  <text x="344" y="405" font-size="13" font-weight="700" fill="#171717" font-family="monospace">SRV-003</text>
  <text x="460" y="405" font-size="13" font-weight="500" fill="#404040">MacBook Air M1</text>
  <text x="680" y="405" font-size="13" font-weight="500" fill="#404040">Baterai Drop</text>
  <rect x="960" y="386" width="160" height="28" rx="6" fill="#E5E5E5" />
  <text x="1040" y="405" font-size="12" font-weight="800" fill="#404040" text-anchor="middle">DIDIAGNOSIS</text>
  <text x="1140" y="405" font-size="13" font-weight="500" fill="#737373">30/06/2026</text>
  <rect x="1270" y="386" width="100" height="28" rx="6" fill="#737373" />
  <text x="1320" y="405" font-size="12" font-weight="700" fill="#FFFFFF" text-anchor="middle">Isi Diagnosis</text>
</svg>
